<!-- <?xml version="1.0" standalone="no"?>
<!DOCTYPE svg PUBLIC "-//W3C//DTD SVG 20010904//EN"
 "http://www.w3.org/TR/2001/REC-SVG-20010904/DTD/svg10.dtd"> -->
<svg version="1.0" xmlns="http://www.w3.org/2000/svg"
 width="300.000000pt" height="90.000000pt" viewBox="0 0 100.000000 90.000000"
 preserveAspectRatio="xMidYMid meet">
<!-- <metadata>
Created by potrace 1.10, written by Peter Selinger 2001-2011
</metadata> -->
<g transform="translate(0.000000,90.000000) scale(0.100000,-0.100000)"
fill="#aad179" stroke="none">
<path d="M386 724 c-12 -12 -16 -38 -16 -112 0 -117 12 -142 66 -142 l36 0
-28 -29 -27 -29 -19 24 c-18 23 -25 24 -122 24 -134 0 -136 -2 -136 -132 0
-135 5 -141 136 -139 93 1 100 3 122 27 l22 25 23 -26 c21 -24 27 -26 114 -26
92 0 133 12 133 38 0 19 8 16 33 -12 21 -24 27 -26 122 -26 131 0 135 4 133
142 -1 124 -6 129 -138 129 -84 0 -93 -2 -116 -25 -28 -28 -34 -30 -34 -14 0
18 -32 38 -62 39 -34 0 -35 6 -7 29 20 16 21 27 21 115 -2 134 -4 136 -138
136 -80 0 -106 -3 -118 -16z m232 -108 c2 -64 -1 -103 -9 -112 -15 -18 -189
-20 -207 -2 -13 13 -17 199 -5 212 4 3 54 5 112 4 l106 -3 3 -99z m-90 -153
c-10 -2 -26 -2 -35 0 -10 3 -2 5 17 5 19 0 27 -2 18 -5z m59 1 c-3 -3 -12 -4
-19 -1 -8 3 -5 6 6 6 11 1 17 -2 13 -5z m-202 -139 l0 -110 -104 -3 c-77 -2
-107 1 -113 10 -13 21 -10 192 4 206 9 9 43 12 113 10 l100 -3 0 -110z m280 0
l0 -110 -100 -3 c-85 -2 -102 0 -112 15 -17 23 -18 184 -1 201 9 9 43 12 113
10 l100 -3 0 -110z m283 103 c18 -18 16 -192 -2 -207 -9 -8 -48 -11 -112 -9
l-99 3 -3 99 c-1 55 0 106 2 113 7 17 196 19 214 1z"/>
<!-- <path d="M1106 588 c-3 -13 -7 -67 -10 -122 -5 -99 2 -136 28 -136 31 0 39 30
38 142 -1 95 -4 114 -18 125 -25 18 -33 16 -38 -9z m34 -118 c0 -100 -2 -120
-15 -120 -12 0 -15 20 -15 120 0 100 3 120 15 120 13 0 15 -20 15 -120z"/>
<path d="M1279 527 c-31 -21 -34 -27 -35 -75 -1 -55 10 -73 41 -67 11 2 25 4
32 4 6 1 19 8 28 17 14 14 18 15 33 1 30 -26 74 -28 99 -5 21 20 24 20 41 5
21 -19 79 -29 88 -15 3 5 15 6 25 3 11 -4 26 -1 34 5 11 9 19 9 28 1 7 -6 27
-10 43 -10 16 1 46 -1 67 -3 56 -7 70 8 59 60 -11 49 0 63 29 36 14 -13 18
-25 14 -42 -7 -28 10 -52 35 -52 20 0 30 19 30 58 0 14 7 33 16 43 22 25 11
49 -23 50 -15 0 -36 2 -45 4 -10 2 -20 0 -23 -5 -3 -4 -34 -5 -69 -3 l-64 6
-57 -56 c-39 -37 -56 -61 -52 -71 4 -10 1 -16 -8 -16 -12 0 -15 15 -15 66 0
48 3 65 13 61 7 -2 11 -16 9 -33 l-4 -29 34 31 c18 17 40 34 48 37 12 4 11 6
-3 6 -10 1 -27 -4 -37 -9 -12 -6 -21 -6 -25 -1 -3 6 -23 9 -44 9 -22 0 -43 2
-48 5 -5 3 -24 -3 -42 -14 -26 -16 -36 -17 -47 -8 -20 16 -72 21 -95 8 -14 -7
-25 -6 -41 6 -29 19 -29 19 -69 -8z m71 -12 c0 -9 -9 -15 -25 -15 -14 0 -30
-9 -37 -20 -7 -11 -18 -20 -25 -20 -24 0 9 50 36 56 14 3 31 7 36 9 6 2 11 4
13 4 1 1 2 -6 2 -14z m253 -5 c-4 -5 -19 -10 -33 -12 -18 -2 -26 -10 -28 -27
-4 -28 21 -53 44 -44 8 3 14 -1 14 -11 0 -9 -8 -16 -19 -16 -25 0 -71 38 -71
59 0 28 29 59 58 63 32 4 47 -1 35 -12z m255 1 c2 -7 -14 -11 -47 -11 -45 0
-61 7 -47 21 9 9 90 1 94 -10z m130 0 c2 -7 -14 -11 -47 -11 -34 0 -51 4 -51
13 0 16 93 14 98 -2z m-577 -17 c-26 -33 -26 -39 0 -63 11 -10 16 -21 11 -25
-14 -8 -52 32 -52 56 0 25 27 58 47 58 11 0 9 -7 -6 -26z m61 9 c10 -9 18 -27
18 -40 0 -26 -41 -74 -48 -55 -2 7 4 19 12 28 20 19 20 38 1 54 -15 13 -20 30
-8 30 3 0 15 -7 25 -17z m282 -72 c-6 -6 -34 20 -34 33 0 7 6 18 12 24 10 10
14 6 20 -20 3 -18 5 -35 2 -37z m196 14 c0 -32 -4 -45 -14 -45 -10 0 -13 11
-11 43 4 50 3 47 15 47 6 0 10 -20 10 -45z m-507 29 c9 -9 -4 -35 -14 -28 -5
3 -9 12 -9 20 0 14 12 19 23 8z m167 -12 c0 -19 -35 -28 -45 -11 -9 14 4 29
26 29 12 0 19 -7 19 -18z m240 3 c0 -11 -12 -15 -45 -15 -33 0 -45 4 -45 15 0
11 12 15 45 15 33 0 45 -4 45 -15z m-500 -15 c0 -24 -41 -53 -70 -48 -33 5
-28 23 7 26 21 2 34 10 38 23 8 25 25 25 25 -1z m378 -49 c-16 -5 -51 35 -43
49 5 8 14 3 30 -16 13 -16 19 -31 13 -33z m132 14 c0 -11 -12 -15 -50 -15 -38
0 -50 4 -50 15 0 11 12 15 50 15 38 0 50 -4 50 -15z"/>
<path d="M2143 533 c-35 -18 -43 -30 -43 -71 0 -46 41 -83 84 -76 17 3 41 5
53 5 12 -1 28 8 36 19 14 20 14 20 32 0 22 -25 62 -26 87 -3 16 14 22 15 36 5
32 -23 44 -25 59 -9 12 11 14 26 8 66 -4 28 -10 51 -13 51 -4 0 -20 -21 -36
-46 l-29 -45 -18 28 -19 28 0 -42 c0 -24 -4 -43 -10 -43 -6 0 -10 28 -10 65 0
36 4 65 9 65 5 0 18 -14 29 -31 l19 -31 19 30 c10 17 25 33 33 35 12 4 12 5
-2 6 -10 0 -25 -6 -34 -14 -14 -14 -17 -14 -32 0 -22 19 -50 19 -58 -1 -5 -13
-9 -12 -28 6 -20 19 -23 19 -36 4 -7 -9 -18 -25 -24 -36 -13 -27 -30 -20 -30
11 0 32 -42 45 -82 24z m77 -23 c0 -5 -17 -10 -37 -12 -33 -3 -38 -7 -41 -30
-2 -19 3 -30 19 -39 17 -9 24 -9 27 0 6 17 32 13 32 -4 0 -38 -70 -29 -97 11
-15 24 -15 29 -2 53 19 33 99 51 99 21z m106 -48 c17 -46 20 -62 10 -62 -7 0
-23 26 -35 59 -24 67 -25 74 -10 69 6 -2 22 -32 35 -66z m-46 16 c0 -26 -25
-78 -38 -78 -7 0 -12 3 -10 8 2 4 10 24 18 45 13 36 30 50 30 25z m200 -33 c0
-33 -4 -45 -15 -45 -18 0 -20 41 -5 71 16 29 20 23 20 -26z m-270 20 c3 -6 -5
-11 -17 -13 -15 -2 -23 2 -23 11 0 15 32 17 40 2z"/>
<path d="M2771 531 c-26 -12 -35 -13 -38 -3 -6 17 -28 15 -43 -3 -12 -14 -15
-14 -31 1 -25 22 -39 15 -54 -31 -24 -69 4 -128 43 -91 17 14 19 14 35 -1 14
-14 21 -15 43 -4 16 7 31 8 38 3 44 -35 109 -12 99 36 -3 15 -6 42 -7 61 -1
44 -34 56 -85 32z m-104 -43 l28 -42 3 42 c5 67 22 49 22 -23 0 -36 -4 -65 -9
-65 -4 0 -26 26 -47 58 -47 69 -49 72 -35 72 6 0 23 -19 38 -42z m183 28 c0
-10 -13 -16 -37 -18 -33 -3 -38 -7 -41 -30 -3 -22 2 -30 24 -40 22 -10 28 -10
32 0 6 19 22 14 22 -8 0 -15 -7 -20 -29 -20 -39 0 -73 30 -73 63 0 36 17 55
55 60 18 2 35 5 40 5 4 1 7 -4 7 -12z m-216 -42 c9 -24 7 -74 -3 -74 -5 0 -11
20 -13 45 -3 45 4 59 16 29z m214 -12 c2 -7 -7 -12 -22 -12 -16 0 -26 6 -26
15 0 18 42 15 48 -3z"/>
<path d="M2522 518 c-16 -44 -7 -110 16 -126 19 -13 22 -12 27 10 3 13 5 49 3
78 -2 43 -7 56 -20 58 -11 2 -21 -5 -26 -20z m36 -56 c2 -51 0 -62 -12 -62
-13 0 -16 13 -16 66 0 47 3 65 12 62 8 -3 14 -29 16 -66z"/> -->
</g>
</svg>
