<?xml version="1.0" standalone="no"?>
<!DOCTYPE svg PUBLIC "-//W3C//DTD SVG 20010904//EN"
 "http://www.w3.org/TR/2001/REC-SVG-20010904/DTD/svg10.dtd">
<svg version="1.0" xmlns="http://www.w3.org/2000/svg"
 width="900.000000pt" height="204.000000pt" viewBox="0 0 900.000000 204.000000"
 preserveAspectRatio="xMidYMid meet">
<metadata>
Created by potrace 1.10, written by Peter Selinger 2001-2011
</metadata>
<g transform="translate(0.000000,204.000000) scale(0.100000,-0.100000)"
fill="#000000" stroke="none">
<path d="M1080 1920 c-87 -15 -140 -63 -169 -152 -17 -50 -9 -558 9 -608 19
-53 113 -119 174 -121 17 -1 42 -4 55 -8 23 -6 22 -8 -29 -69 -28 -34 -55 -62
-58 -62 -13 1 -38 25 -61 59 -40 56 -73 64 -281 68 -393 7 -425 3 -484 -67
-55 -66 -56 -68 -57 -353 0 -146 3 -281 6 -300 9 -45 68 -115 114 -135 29 -13
86 -17 301 -19 312 -3 333 1 410 78 27 27 53 49 57 49 4 0 21 -16 36 -35 16
-20 47 -48 70 -63 l42 -27 290 0 c328 1 316 -1 402 82 l49 48 52 -51 c77 -76
97 -79 405 -77 142 1 275 7 296 13 49 13 106 74 122 132 18 62 13 562 -6 597
-25 49 -80 103 -117 116 -26 9 -112 12 -305 11 l-268 -1 -58 -29 c-35 -17 -62
-37 -67 -51 -18 -47 -70 -47 -106 1 -35 45 -64 60 -149 75 -37 7 -69 18 -72
25 -2 7 12 33 31 58 60 79 63 113 58 542 -2 128 -3 131 -33 178 -33 49 -92 88
-144 93 -59 7 -481 9 -515 3z m589 -96 l31 -26 0 -318 0 -319 -26 -20 c-26
-20 -38 -21 -339 -21 l-313 0 -26 31 -26 31 0 305 0 305 31 29 31 29 303 0
303 0 31 -26z m-712 -896 l23 -21 0 -317 0 -317 -24 -22 c-24 -23 -25 -23
-343 -22 l-318 1 -22 26 c-23 25 -23 28 -23 334 0 307 0 309 23 333 12 14 34
27 47 29 14 1 158 2 320 0 285 -3 295 -3 317 -24z m896 -11 l27 -31 0 -301
c-1 -299 -1 -300 -24 -328 l-23 -29 -316 1 c-331 0 -350 2 -363 45 -3 10 -6
154 -6 319 1 280 2 302 20 326 l19 26 289 5 c159 3 303 4 319 2 18 -2 41 -16
58 -35z m900 1 l27 -32 0 -296 0 -296 -27 -32 -28 -33 -317 0 c-337 -1 -330
-2 -356 48 -17 32 -19 589 -2 625 24 51 41 53 371 50 l304 -2 28 -32z"/>
<path d="M3265 1489 c-11 -17 3 -24 43 -20 44 3 52 9 32 21 -20 13 -67 12 -75
-1z"/>
<path d="M3360 1243 c-1 -120 -2 -310 -3 -423 l-2 -205 -42 -3 c-42 -3 -61
-21 -25 -23 56 -4 92 23 111 82 9 29 16 176 22 474 0 11 -4 74 -9 140 -8 112
-24 175 -44 175 -4 0 -8 -98 -8 -217z"/>
<path d="M3215 1428 c-6 -22 -10 -120 -20 -478 -2 -85 -4 -159 -5 -165 -3 -19
31 -139 43 -153 10 -13 13 -7 19 34 8 63 10 663 2 732 -7 55 -26 70 -39 30z"/>
<path d="M5474 1305 c-22 -5 -57 -19 -77 -30 -33 -17 -37 -18 -54 -3 -32 28
-78 31 -129 9 -55 -25 -97 -27 -114 -6 -19 23 -76 19 -99 -7 -26 -27 -71 -26
-110 1 -23 17 -45 21 -117 22 -92 1 -130 -10 -210 -61 l-32 -21 -28 24 c-55
46 -112 64 -194 61 -87 -4 -130 -15 -166 -43 -33 -26 -64 -27 -95 -3 -13 10
-37 24 -54 31 -40 18 -160 24 -200 11 -40 -13 -89 -64 -110 -114 -15 -35 -15
-48 -4 -98 9 -45 9 -62 0 -71 -22 -22 -13 -91 19 -135 46 -63 97 -85 205 -86
83 -1 93 1 130 27 49 34 69 34 142 1 44 -19 68 -24 99 -20 23 3 56 1 74 -4 28
-8 41 -4 102 30 38 22 75 40 82 40 7 0 44 -16 83 -36 39 -19 79 -35 89 -35 10
1 26 1 34 1 8 1 37 -1 63 -3 26 -2 51 1 54 6 3 5 25 18 48 28 33 15 49 17 69
9 l26 -10 0 99 0 99 40 32 c22 17 40 36 40 41 0 5 -15 9 -34 9 -19 0 -37 4
-40 9 -3 4 -6 36 -8 70 -3 71 7 83 62 79 l35 -3 -3 -78 c-2 -55 1 -77 8 -72
16 10 134 134 138 146 2 5 26 9 53 9 49 0 49 0 49 -32 -1 -29 -10 -40 -65 -82
-36 -26 -65 -52 -65 -57 0 -6 36 -56 79 -112 66 -85 78 -107 74 -130 -5 -23
-10 -27 -38 -27 -19 0 -41 7 -50 16 -15 16 -79 110 -100 148 -18 34 -42 43
-62 23 -14 -14 -18 -35 -18 -100 l0 -82 -42 -3 c-44 -3 -56 -15 -27 -26 29
-11 49 -5 84 24 43 38 58 37 120 -1 42 -26 57 -30 88 -25 59 11 74 9 122 -9
72 -27 280 -8 280 25 0 12 -103 22 -205 19 -75 -2 -99 0 -106 12 -13 21 -11
65 4 77 7 6 70 10 162 9 l150 -2 3 -47 c4 -56 14 -61 36 -16 15 30 15 32 -10
65 l-26 34 18 59 c17 58 18 59 37 43 12 -12 17 -26 13 -43 -2 -14 -1 -32 4
-39 4 -8 2 -27 -6 -46 -13 -31 -12 -34 20 -71 19 -22 38 -36 42 -31 4 4 10 95
12 201 3 107 7 198 11 204 3 5 52 12 108 16 l102 7 6 -35 c4 -19 4 -44 0 -56
-7 -21 -11 -22 -65 -16 -35 4 -61 3 -64 -3 -8 -13 5 -321 14 -321 15 0 60 118
60 158 0 37 16 33 68 -19 46 -46 54 -50 94 -49 114 5 126 2 166 -38 76 -76
107 -93 170 -93 31 1 69 1 83 1 15 -1 53 8 84 19 l58 20 45 -26 c41 -24 58
-27 165 -31 118 -4 217 8 245 31 9 7 20 6 37 -3 14 -7 35 -10 52 -6 32 8 73
43 73 62 0 7 9 15 19 19 11 3 22 12 25 20 9 25 53 18 75 -12 50 -67 57 -68 57
-10 0 23 3 80 8 126 10 99 0 104 -51 26 -29 -44 -49 -64 -64 -65 -3 0 -36 41
-73 90 -37 50 -83 105 -102 124 -19 18 -34 38 -34 45 0 17 -17 13 -24 -5 -4
-9 -1 -24 7 -33 7 -9 21 -42 32 -74 17 -53 17 -59 2 -74 -21 -21 -42 -5 -58
45 -6 20 -17 44 -23 52 -6 8 -20 33 -31 54 -29 58 -66 93 -112 106 -40 12 -43
12 -90 -22 -26 -19 -57 -48 -68 -66 -11 -17 -28 -31 -38 -32 -10 0 -42 22 -70
49 -61 57 -98 69 -213 70 -61 1 -85 -3 -94 -14 -7 -8 -18 -15 -26 -15 -7 0
-34 -25 -60 -55 -53 -61 -83 -75 -162 -75 -38 0 -61 -5 -74 -17 -14 -13 -21
-14 -30 -5 -9 9 -7 19 10 42 23 31 29 60 12 60 -5 0 -10 6 -10 13 0 6 -13 27
-28 45 -27 32 -30 33 -107 34 -44 1 -125 -2 -180 -5 -55 -4 -113 -3 -130 2
-48 15 -156 18 -201 6z m-1604 -60 c16 -20 30 -19 46 3 12 16 14 16 49 -3 53
-28 85 -70 85 -111 0 -20 -5 -34 -12 -35 -37 -3 -57 7 -95 47 -23 24 -45 44
-50 44 -4 0 -23 -13 -42 -29 -35 -29 -38 -61 -6 -61 19 0 130 -37 165 -55 35
-18 65 -75 57 -107 -10 -37 -42 -73 -87 -97 -51 -26 -66 -26 -81 0 l-11 21
-23 -22 -24 -22 -38 23 c-50 30 -65 46 -88 91 -21 41 -17 53 27 63 22 6 34 0
67 -32 84 -80 94 -85 105 -58 3 8 12 15 20 15 16 0 46 26 46 41 0 11 -59 36
-108 45 -45 8 -89 29 -119 57 -18 16 -23 32 -23 67 0 48 16 71 80 113 30 21
44 21 60 2z m424 0 c19 -19 26 -19 41 2 14 19 26 14 107 -41 36 -23 78 -114
78 -165 0 -22 -8 -57 -17 -78 -22 -49 -82 -113 -105 -113 -10 0 -18 -4 -18 -9
0 -19 -35 -22 -48 -4 -10 14 -16 15 -30 5 -32 -23 -43 -24 -61 -8 -10 9 -22
16 -28 16 -19 0 -79 75 -96 120 -21 57 -22 96 -1 146 17 42 80 114 100 114 6
0 17 7 24 15 7 8 18 15 26 15 7 0 19 -7 28 -15z m440 -1 c3 -9 6 -31 6 -49 0
-27 -6 -37 -30 -52 -36 -21 -60 -64 -60 -105 0 -31 25 -88 38 -88 24 0 52 -43
52 -81 0 -46 -21 -61 -49 -35 -10 9 -22 16 -28 16 -5 0 -26 17 -45 38 -74 80
-74 224 0 304 19 21 41 38 47 38 7 0 18 7 25 15 16 20 36 19 44 -1z m114 -8
c50 -32 104 -96 100 -120 -4 -29 -45 -47 -74 -34 -13 6 -26 19 -29 28 -3 9
-23 27 -45 39 -36 20 -40 26 -40 61 0 55 28 64 88 26z m861 10 c17 -11 14 -86
-4 -87 -8 0 -76 0 -150 0 -74 0 -139 0 -144 0 -16 2 -20 44 -7 70 l14 26 140
-1 c77 -1 145 -5 151 -8z m133 -11 c8 -18 9 -35 2 -53 -8 -23 -15 -27 -49 -27
-39 0 -40 1 -43 39 -5 55 2 66 43 66 28 0 38 -5 47 -25z m718 -1 c11 -27 4
-74 -11 -74 -4 0 -24 -13 -42 -30 -63 -55 -57 -147 12 -190 44 -28 56 -55 41
-94 -11 -31 -13 -31 -53 -8 -98 53 -129 100 -135 202 l-4 75 40 51 c37 47 99
92 130 93 7 1 17 -11 22 -25z m102 4 c61 -32 108 -84 108 -120 0 -30 -63 -23
-112 12 -22 17 -47 30 -55 30 -9 0 -13 14 -13 43 0 65 7 68 72 35z m390 5 c10
-9 18 -23 18 -31 0 -13 11 -41 45 -117 69 -154 96 -226 90 -246 -4 -10 -9 -19
-13 -19 -148 -4 -393 -2 -397 2 -8 8 3 49 20 72 13 17 27 19 139 17 68 -1 127
2 130 7 3 5 -6 33 -21 63 -14 30 -31 65 -37 79 -16 33 -40 32 -44 -2 -2 -15
-13 -47 -26 -70 -19 -37 -27 -43 -59 -46 -49 -4 -58 18 -29 69 12 21 22 45 22
53 0 8 6 27 14 43 24 46 46 100 46 112 0 30 73 41 102 14z m-1364 -159 c9 -2
12 -17 10 -41 l-3 -38 -139 -3 c-140 -3 -166 3 -166 35 0 7 7 24 15 36 14 22
19 23 142 19 71 -2 134 -5 141 -8z m634 -35 c5 -16 5 -37 -1 -52 -10 -26 -12
-27 -100 -27 -89 0 -91 1 -104 28 -8 15 -12 34 -9 42 12 37 24 41 115 38 87
-3 91 -4 99 -29z m458 11 c13 -20 -11 -113 -37 -147 -32 -41 -110 -95 -132
-91 -11 2 -17 16 -18 48 -3 44 -2 46 40 66 28 13 42 27 42 40 0 17 -6 19 -48
16 -27 -2 -55 2 -63 9 -17 14 -19 50 -3 66 14 14 210 8 219 -7z m-1974 -11 c6
-11 -31 -48 -48 -49 -5 0 -8 14 -8 30 0 25 4 30 24 30 14 0 28 -5 32 -11z
m142 -85 c3 -22 -71 -114 -91 -114 -6 0 -18 -7 -28 -16 -12 -11 -27 -14 -44
-10 -21 5 -25 12 -25 46 0 35 4 41 40 61 22 12 42 31 46 41 5 16 14 18 52 16
39 -2 48 -7 50 -24z m2400 -61 l3 -83 -39 0 c-21 0 -43 5 -50 12 -13 13 -17
140 -5 152 4 4 25 6 48 4 l40 -3 3 -82z"/>
<path d="M4269 1150 c-97 -60 -99 -151 -4 -218 l45 -32 51 37 c98 70 92 158
-15 221 l-33 20 -44 -28z m61 -104 c0 -16 -18 -31 -27 -22 -8 8 5 36 17 36 5
0 10 -6 10 -14z"/>
<path d="M7572 1289 c-13 -5 -35 -18 -48 -28 -45 -35 -77 -35 -138 -1 -34 20
-66 30 -83 28 -37 -4 -36 -22 2 -26 36 -4 49 -17 99 -99 22 -35 45 -63 52 -63
13 0 94 112 94 130 0 26 99 43 101 18 5 -97 3 -389 -3 -405 -6 -18 -15 -23
-45 -23 -26 0 -34 -3 -26 -11 17 -17 49 -14 88 6 l36 20 39 -23 40 -23 44 21
c45 20 85 17 101 -9 14 -24 64 -11 96 24 18 19 38 35 45 35 7 0 39 -16 71 -35
72 -44 108 -45 151 -5 37 34 57 37 83 14 25 -23 83 -36 176 -40 72 -3 88 -1
132 22 54 27 86 63 116 132 17 38 17 49 5 115 -21 113 -49 157 -130 204 -27
16 -53 20 -118 21 -73 0 -91 -4 -142 -29 -32 -16 -65 -29 -72 -29 -7 0 -28 14
-47 30 -42 38 -67 38 -117 0 -21 -16 -47 -30 -57 -30 -21 0 -93 35 -102 50 -7
11 -54 13 -79 4 -29 -11 -16 -24 24 -24 29 0 43 -6 55 -22 9 -13 36 -51 61
-86 24 -34 54 -80 65 -102 13 -25 28 -40 39 -40 17 0 18 6 12 58 -4 31 -7 86
-7 122 l0 65 47 3 47 3 -2 -218 -2 -218 -28 -3 c-35 -4 -68 16 -87 54 -16 31
-189 263 -228 304 -13 14 -26 37 -29 53 -4 20 -10 26 -23 22 -9 -3 -28 4 -43
15 -30 24 -70 26 -87 5 -16 -19 -68 -20 -89 -1 -23 19 -62 26 -89 15z m262
-51 c9 -36 7 -92 -5 -127 -7 -19 -8 -36 -2 -44 5 -6 8 -55 7 -107 -3 -153 1
-140 -44 -140 -33 0 -42 4 -49 22 -10 29 -1 220 11 236 7 8 7 16 0 25 -15 18
-25 92 -17 127 6 28 10 30 50 30 36 0 44 -4 49 -22z m707 -4 c14 -38 3 -60
-40 -85 -39 -22 -71 -72 -71 -112 0 -33 36 -85 74 -108 38 -22 49 -49 36 -85
-11 -27 -41 -32 -60 -9 -7 8 -18 15 -24 15 -7 0 -30 19 -53 43 -100 104 -74
264 57 344 48 29 68 28 81 -3z m91 4 c54 -27 86 -55 105 -92 12 -24 13 -30 1
-37 -24 -16 -69 -9 -101 14 -17 12 -41 27 -52 32 -30 15 -35 105 -6 105 6 0
30 -10 53 -22z m126 -193 c2 -15 1 -43 -2 -60 -7 -35 -76 -121 -110 -136 -12
-5 -28 -14 -38 -21 -22 -16 -48 5 -48 41 0 33 7 42 53 70 21 13 37 30 37 41 0
17 -7 19 -57 17 -57 -2 -58 -1 -61 26 -6 53 -2 55 115 52 l108 -2 3 -28z
m-746 -118 c10 -82 -1 -107 -51 -107 -32 0 -41 4 -47 23 -8 24 -6 126 3 139 2
5 24 8 46 6 l42 -3 7 -58z"/>
<path d="M5870 811 c0 -14 38 -24 66 -17 40 10 27 26 -21 26 -25 0 -45 -4 -45
-9z"/>
</g>
</svg>
